<svg width="222" height="222" viewBox="0 0 222 222" fill="none" xmlns="http://www.w3.org/2000/svg">
<path d="M175.75 27.75H137.085C133.2 17.02 123.025 9.25 111 9.25C98.975 9.25 88.8 17.02 84.915 27.75H46.25C36.075 27.75 27.75 36.075 27.75 46.25V175.75C27.75 185.925 36.075 194.25 46.25 194.25H175.75C185.925 194.25 194.25 185.925 194.25 175.75V46.25C194.25 36.075 185.925 27.75 175.75 27.75ZM111 27.75C116.088 27.75 120.25 31.9125 120.25 37C120.25 42.0875 116.088 46.25 111 46.25C105.912 46.25 101.75 42.0875 101.75 37C101.75 31.9125 105.912 27.75 111 27.75ZM111 64.75C126.355 64.75 138.75 77.145 138.75 92.5C138.75 107.855 126.355 120.25 111 120.25C95.645 120.25 83.25 107.855 83.25 92.5C83.25 77.145 95.645 64.75 111 64.75ZM166.5 175.75H55.5V162.8C55.5 144.3 92.5 134.125 111 134.125C129.5 134.125 166.5 144.3 166.5 162.8V175.75Z" fill="#56C991"/>
</svg>
