<svg width="73" height="69" viewBox="0 0 73 69" fill="none" xmlns="http://www.w3.org/2000/svg">
<path d="M36.5 5.75C19.71 5.75 6.08337 18.63 6.08337 34.5C6.08337 50.37 19.71 63.25 36.5 63.25C53.29 63.25 66.9167 50.37 66.9167 34.5C66.9167 18.63 53.29 5.75 36.5 5.75ZM24.3334 50.3125C20.1359 50.3125 16.7292 47.0925 16.7292 43.125C16.7292 39.1575 20.1359 35.9375 24.3334 35.9375C28.5309 35.9375 31.9375 39.1575 31.9375 43.125C31.9375 47.0925 28.5309 50.3125 24.3334 50.3125ZM28.8959 23C28.8959 19.0325 32.3025 15.8125 36.5 15.8125C40.6975 15.8125 44.1042 19.0325 44.1042 23C44.1042 26.9675 40.6975 30.1875 36.5 30.1875C32.3025 30.1875 28.8959 26.9675 28.8959 23ZM48.6667 50.3125C44.4692 50.3125 41.0625 47.0925 41.0625 43.125C41.0625 39.1575 44.4692 35.9375 48.6667 35.9375C52.8642 35.9375 56.2709 39.1575 56.2709 43.125C56.2709 47.0925 52.8642 50.3125 48.6667 50.3125Z" fill="#E0D35E"/>
</svg>
