<svg width="222" height="222" viewBox="0 0 222 222" fill="none" xmlns="http://www.w3.org/2000/svg">
<path d="M152.625 111C165.39 111 175.658 100.64 175.658 87.875C175.658 75.11 165.39 64.75 152.625 64.75C139.86 64.75 129.5 75.11 129.5 87.875C129.5 100.64 139.86 111 152.625 111ZM83.25 101.75C98.605 101.75 110.908 89.355 110.908 74C110.908 58.645 98.605 46.25 83.25 46.25C67.895 46.25 55.5 58.645 55.5 74C55.5 89.355 67.895 101.75 83.25 101.75ZM152.625 129.5C135.698 129.5 101.75 138.01 101.75 154.938V175.75H203.5V154.938C203.5 138.01 169.553 129.5 152.625 129.5ZM83.25 120.25C61.6975 120.25 18.5 131.073 18.5 152.625V175.75H83.25V154.938C83.25 147.075 86.3025 133.292 105.173 122.84C97.125 121.175 89.355 120.25 83.25 120.25Z" fill="#30A2D5"/>
</svg>
